<svg width="38" height="39" viewBox="0 0 38 39" fill="none" xmlns="http://www.w3.org/2000/svg">
<path d="M37.5303 19.8623C37.5303 18.2754 37.4032 17.1174 37.1282 15.9165H19.247V23.0789H29.7429C29.5313 24.8589 28.3886 27.5395 25.8493 29.3407L25.8137 29.5805L31.4674 34.019L31.8591 34.0586C35.4564 30.6918 37.5303 25.7381 37.5303 19.8623Z" fill="#4285F4"/>
<path d="M19.2469 38.7336C24.389 38.7336 28.7059 37.0179 31.859 34.0587L25.8492 29.3408C24.241 30.4773 22.0825 31.2708 19.2469 31.2708C14.2106 31.2708 9.93607 27.9041 8.41231 23.2506L8.18897 23.2698L2.31016 27.8804L2.23328 28.097C5.3651 34.4017 11.7981 38.7336 19.2469 38.7336Z" fill="#34A853"/>
<path d="M8.41243 23.2506C8.01037 22.0498 7.77769 20.763 7.77769 19.4335C7.77769 18.1038 8.01037 16.8172 8.39128 15.6163L8.38063 15.3606L2.42815 10.6759L2.23339 10.7698C0.942615 13.3861 0.201965 16.324 0.201965 19.4335C0.201965 22.5429 0.942615 25.4808 2.23339 28.097L8.41243 23.2506Z" fill="#FBBC05"/>
<path d="M19.2469 7.59597C22.8231 7.59597 25.2354 9.16142 26.611 10.4696L31.9859 5.15134C28.6849 2.04188 24.389 0.133301 19.2469 0.133301C11.7981 0.133301 5.3651 4.46508 2.23328 10.7697L8.39116 15.6163C9.93607 10.9628 14.2106 7.59597 19.2469 7.59597Z" fill="#EB4335"/>
</svg>
