<svg width="230" height="418" viewBox="0 0 230 418" fill="none" xmlns="http://www.w3.org/2000/svg">
<rect x="5.92165" y="30.5807" width="218.433" height="381.166" rx="28.3963" fill="#041727" stroke="url(#paint0_linear)" stroke-width="10.9217"/>
<rect x="39.7788" y="83.0046" width="150.719" height="10.9217" rx="2.18433" fill="#126AFC" fill-opacity="0.13"/>
<rect x="98.7558" y="125.599" width="91.7419" height="10.9217" rx="2.18433" fill="#126AFC" fill-opacity="0.13"/>
<rect x="98.7558" y="105.94" width="91.7419" height="10.9217" rx="2.18433" fill="#126AFC" fill-opacity="0.13"/>
<rect x="39.7788" y="105.94" width="46.9631" height="50.2396" rx="2.18433" fill="#126AFC" fill-opacity="0.13"/>
<circle cx="114.592" cy="32.2189" r="32.2189" fill="url(#paint1_linear)" fill-opacity="0.59"/>
<g opacity="0.8">
<path d="M122.783 26.2119C122.783 23.8947 121.863 21.6723 120.224 20.0337C118.586 18.3951 116.363 17.4746 114.046 17.4746C111.729 17.4746 109.506 18.3951 107.868 20.0337C106.229 21.6723 105.309 23.8947 105.309 26.2119C105.309 36.4055 100.94 39.3179 100.94 39.3179H127.152C127.152 39.3179 122.783 36.4055 122.783 26.2119Z" stroke="white" stroke-width="2.70441" stroke-linecap="round" stroke-linejoin="round"/>
<path d="M117.92 44.3627C117.526 45.0413 116.961 45.6046 116.281 45.9962C115.601 46.3877 114.831 46.5938 114.046 46.5938C113.262 46.5938 112.491 46.3877 111.811 45.9962C111.131 45.6046 110.566 45.0413 110.172 44.3627" stroke="white" stroke-width="3.25692" stroke-linecap="round" stroke-linejoin="round"/>
</g>
<defs>
<linearGradient id="paint0_linear" x1="115.138" y1="-43.6866" x2="115.711" y2="324.919" gradientUnits="userSpaceOnUse">
<stop stop-color="#126AFC"/>
<stop offset="1" stop-color="#126AFC" stop-opacity="0"/>
</linearGradient>
<linearGradient id="paint1_linear" x1="71.9977" y1="76.9977" x2="146.811" y2="3.40952e-06" gradientUnits="userSpaceOnUse">
<stop stop-color="#126AFC"/>
<stop offset="1" stop-color="#126AFC" stop-opacity="0"/>
</linearGradient>
</defs>
</svg>
